<?xml version="1.0" standalone="no"?>
<!DOCTYPE svg PUBLIC "-//W3C//DTD SVG 20010904//EN"
 "http://www.w3.org/TR/2001/REC-SVG-20010904/DTD/svg10.dtd">
<svg version="1.0" xmlns="http://www.w3.org/2000/svg"
 width="324.000000pt" height="326.000000pt" viewBox="0 0 324.000000 326.000000"
 preserveAspectRatio="xMidYMid meet">

<g transform="translate(0.000000,326.000000) scale(0.100000,-0.100000)"
fill="#000000" stroke="none">
<path d="M1467 3230 c-399 -38 -780 -233 -1048 -536 -184 -207 -324 -487 -374
-746 -170 -880 382 -1709 1265 -1899 90 -20 135 -23 310 -23 232 -1 337 16
524 81 242 84 422 198 611 388 242 242 371 478 447 822 19 83 22 130 23 308 0
237 -16 339 -82 529 -173 498 -587 888 -1088 1025 -170 47 -412 68 -588 51z
m445 -120 c565 -115 1010 -526 1166 -1079 l20 -71 -69 0 c-39 0 -69 -4 -69
-10 0 -5 7 -10 15 -10 27 0 35 -39 35 -174 0 -109 -3 -138 -16 -150 -8 -9 -20
-16 -25 -16 -5 0 -9 -4 -9 -10 0 -6 32 -10 75 -10 77 0 92 8 53 25 -22 10 -23
15 -26 161 -2 129 0 153 14 164 23 20 30 4 43 -99 101 -792 -411 -1514 -1194
-1683 -144 -31 -389 -35 -545 -9 -944 156 -1507 1132 -1169 2026 197 521 684
901 1238 965 118 14 345 4 463 -20z"/>
<path d="M1260 3060 c-134 -28 -249 -83 -331 -157 -127 -115 -232 -504 -259
-963 -5 -74 -14 -155 -20 -180 -15 -61 -26 -660 -12 -660 6 0 13 17 15 38 l4
37 1 -37 2 -38 70 0 71 0 -7 162 c-3 90 -9 197 -13 240 l-7 76 97 4 c80 2 103
7 125 24 55 41 51 130 -9 160 -28 15 -29 17 -11 27 29 16 43 39 44 70 0 72
-47 97 -185 97 -95 0 -115 -7 -73 -25 22 -10 23 -15 26 -159 1 -82 -1 -153 -6
-158 -5 -5 -14 23 -21 64 -7 40 -22 93 -33 118 -16 38 -18 58 -13 130 12 158
26 252 41 275 21 32 119 107 181 139 264 133 726 158 1044 55 150 -48 301
-143 365 -229 30 -42 35 -68 -46 262 -34 136 -74 289 -90 341 -26 83 -35 99
-77 139 -75 69 -242 131 -429 158 -113 16 -347 11 -444 -10z m-319 -1140 c14
-8 19 -21 19 -54 0 -53 -17 -69 -73 -70 l-42 -1 -3 68 -3 67 41 0 c23 0 50 -5
61 -10z m21 -180 c22 -27 23 -78 2 -108 -12 -18 -25 -22 -70 -22 l-54 0 0 73
c0 41 3 77 8 81 15 16 96 -1 114 -24z"/>
<path d="M2010 1959 c-77 -23 -110 -81 -110 -191 0 -86 19 -131 71 -166 29
-20 44 -23 101 -20 58 3 72 8 97 33 86 81 78 268 -13 324 -40 25 -101 33 -146
20z m121 -45 c42 -38 53 -178 20 -251 -16 -33 -27 -44 -58 -53 -73 -22 -124
23 -137 119 -12 93 17 180 69 202 28 12 84 3 106 -17z"/>
<path d="M2745 1955 c-50 -18 -65 -38 -65 -90 0 -51 21 -75 101 -115 71 -36
91 -68 68 -108 -31 -57 -110 -51 -132 9 -13 34 -40 35 -45 2 -2 -14 7 -32 22
-48 21 -21 34 -25 85 -25 52 0 65 4 91 28 66 59 45 129 -53 178 -72 36 -87 52
-87 89 0 36 26 65 58 65 26 0 62 -33 62 -56 0 -11 5 -14 16 -10 9 3 18 6 20 6
2 0 4 11 4 25 0 47 -78 74 -145 50z"/>
<path d="M1090 1952 c0 -4 10 -12 23 -17 21 -10 22 -14 22 -165 0 -151 -1
-155 -22 -165 -13 -5 -23 -13 -23 -17 0 -5 62 -8 139 -8 l139 0 6 31 c9 47 7
59 -8 59 -8 0 -19 -13 -25 -30 -10 -30 -11 -30 -81 -30 l-71 0 3 78 3 77 63 3
c82 4 80 22 -3 22 l-65 0 0 70 0 70 58 0 c60 0 82 -11 82 -42 0 -10 7 -18 15
-18 11 0 15 12 15 45 l0 45 -135 0 c-74 0 -135 -3 -135 -8z"/>
<path d="M1550 1915 c0 -33 4 -45 15 -45 8 0 15 8 15 18 0 28 21 42 62 42 l38
0 0 -149 c0 -123 -3 -152 -16 -165 -8 -9 -22 -16 -30 -16 -8 0 -14 -4 -14 -10
0 -6 35 -10 85 -10 50 0 85 4 85 10 0 6 -8 10 -18 10 -38 0 -42 19 -42 177 l0
153 41 0 c36 0 41 -3 50 -30 13 -36 45 -43 35 -7 -3 12 -6 32 -6 45 0 22 -1
22 -150 22 l-150 0 0 -45z"/>
<path d="M2270 1952 c0 -4 10 -12 23 -17 21 -10 22 -17 27 -150 7 -185 20
-205 139 -205 108 0 131 41 131 232 0 117 0 118 25 124 48 12 25 24 -45 24
-70 0 -93 -12 -45 -24 l25 -6 0 -140 c0 -127 -2 -142 -20 -160 -22 -22 -87
-27 -120 -10 -27 14 -40 71 -40 175 0 111 6 134 36 141 49 12 22 24 -56 24
-44 0 -80 -3 -80 -8z"/>
</g>
</svg>
